<?xml version="1.0" encoding="utf-8"?>
<!-- Generator: Adobe Illustrator 16.0.3, SVG Export Plug-In . SVG Version: 6.00 Build 0)  -->
<!DOCTYPE svg PUBLIC "-//W3C//DTD SVG 1.1//EN" "http://www.w3.org/Graphics/SVG/1.1/DTD/svg11.dtd">
<svg version="1.1" id="Layer_1" xmlns="http://www.w3.org/2000/svg" xmlns:xlink="http://www.w3.org/1999/xlink" x="0px" y="0px"
	 width="20px" height="20px" viewBox="0 0 20 20" enable-background="new 0 0 20 20" xml:space="preserve">
<g>
	<g>
		<path fill="none" stroke="#000000" stroke-width="1.5" stroke-miterlimit="10" d="M18.621,7.64
			c0.014,0.051,0.027,0.102,0.039,0.153c1.195,4.788-1.727,9.655-6.521,10.857c-4.805,1.204-9.694-1.726-10.87-6.544
			C1.107,11.437,1.064,10.731,1,10.037"/>
	</g>
</g>
<path fill="none" stroke="#41C363" stroke-width="1.5" stroke-miterlimit="10" d="M3.375,3.863c0.077-0.08,0.146-0.145,0.213-0.208
	c1.489-1.459,3.267-2.326,5.342-2.587c4.411-0.554,8.63,2.33,9.729,6.725"/>
<g>
	<path fill="none" stroke="#41C363" stroke-width="1.5" stroke-miterlimit="10" d="M10.625,4.346c0.01,0.94,0.005,1.882,0.005,2.824
		c-0.006,0-0.009,0-0.013,0c0,0.927-0.003,1.853,0.002,2.782c0.001,0.285-0.122,0.475-0.369,0.612
		c-0.932,0.509-1.86,1.028-2.79,1.543"/>
</g>
<path fill="none" stroke="#000000" stroke-width="1.5" stroke-miterlimit="10" d="M5.899,4.44C5.151,4.354,4.406,4.263,3.662,4.165
	C3.29,4.116,3.063,3.799,3.114,3.423c0.098-0.746,0.189-1.493,0.278-2.239"/>
</svg>
