<?xml version="1.0" encoding="utf-8"?>
<!-- Generator: Adobe Illustrator 16.0.3, SVG Export Plug-In . SVG Version: 6.00 Build 0)  -->
<!DOCTYPE svg PUBLIC "-//W3C//DTD SVG 1.1//EN" "http://www.w3.org/Graphics/SVG/1.1/DTD/svg11.dtd">
<svg version="1.1" id="Admin" xmlns="http://www.w3.org/2000/svg" xmlns:xlink="http://www.w3.org/1999/xlink" x="0px" y="0px"
	 width="165.396px" height="46.969px" viewBox="0 0 165.396 46.969" enable-background="new 0 0 165.396 46.969"
	 xml:space="preserve">
<g>
	<path d="M4.72,17.497c1.227,0,2.2,0.514,2.92,1.54l-1.14,0.98c-0.333-0.36-0.637-0.617-0.91-0.771s-0.583-0.229-0.93-0.229
		c-0.347,0-0.637,0.109-0.87,0.33c-0.233,0.22-0.35,0.536-0.35,0.949c0,0.308,0.117,0.558,0.35,0.75
		c0.233,0.194,0.523,0.374,0.87,0.54c0.346,0.167,0.72,0.33,1.12,0.49c0.4,0.16,0.773,0.351,1.12,0.57s0.637,0.493,0.87,0.82
		c0.233,0.326,0.35,0.736,0.35,1.229c0,1.014-0.3,1.8-0.9,2.36c-0.6,0.56-1.414,0.84-2.44,0.84c-0.52,0-0.983-0.077-1.39-0.23
		c-0.407-0.152-0.764-0.359-1.07-0.62c-0.307-0.26-0.567-0.55-0.78-0.869c-0.213-0.32-0.387-0.653-0.52-1l1.42-0.78
		c0.227,0.547,0.533,1.014,0.92,1.399c0.387,0.388,0.86,0.58,1.42,0.58c0.507,0,0.903-0.13,1.19-0.39
		c0.286-0.26,0.43-0.656,0.43-1.19c0-0.306-0.113-0.556-0.34-0.75c-0.227-0.192-0.514-0.366-0.86-0.52
		c-0.347-0.153-0.72-0.307-1.12-0.46s-0.773-0.347-1.12-0.58s-0.633-0.523-0.86-0.87c-0.227-0.347-0.34-0.793-0.34-1.34
		c0-0.387,0.07-0.75,0.21-1.09c0.14-0.34,0.336-0.634,0.59-0.88c0.253-0.247,0.563-0.443,0.93-0.59
		C3.856,17.57,4.266,17.497,4.72,17.497z"/>
	<path d="M24.7,27.737h-1.68v-6.74c0-1.319-0.54-1.979-1.62-1.979c-0.36,0-0.704,0.1-1.03,0.3s-0.613,0.497-0.86,0.89
		c-0.247,0.394-0.44,0.874-0.58,1.44s-0.21,1.217-0.21,1.95v4.14h-1.68v-6.74c0-1.319-0.54-1.979-1.62-1.979
		c-0.36,0-0.704,0.1-1.03,0.3s-0.613,0.497-0.86,0.89c-0.247,0.394-0.44,0.874-0.58,1.44s-0.21,1.217-0.21,1.95v4.14h-1.68v-10.08
		h1.68v1.86c0.32-0.641,0.747-1.137,1.28-1.49s1.153-0.53,1.86-0.53c0.707,0,1.293,0.184,1.76,0.55
		c0.467,0.367,0.78,0.884,0.94,1.551c0.347-0.667,0.8-1.184,1.36-1.551c0.56-0.366,1.2-0.55,1.92-0.55c0.92,0,1.623,0.28,2.11,0.84
		c0.486,0.561,0.73,1.327,0.73,2.301V27.737z"/>
	<path d="M35.459,27.737H34.14l-0.28-1.42c-0.32,0.467-0.737,0.847-1.25,1.14s-1.15,0.44-1.91,0.44c-0.427,0-0.827-0.057-1.2-0.17
		c-0.374-0.113-0.704-0.297-0.99-0.55c-0.287-0.254-0.513-0.57-0.68-0.95c-0.167-0.38-0.25-0.844-0.25-1.391
		c0-0.533,0.106-1.006,0.32-1.42c0.213-0.413,0.52-0.76,0.92-1.04c0.4-0.279,0.88-0.489,1.44-0.63c0.56-0.14,1.187-0.21,1.88-0.21
		h1.64v-0.439c0-0.773-0.213-1.313-0.64-1.62c-0.427-0.307-0.947-0.46-1.56-0.46c-0.52,0-0.974,0.137-1.36,0.41
		s-0.633,0.663-0.74,1.17L28,20.257c0.146-0.853,0.54-1.526,1.18-2.02c0.64-0.493,1.44-0.74,2.4-0.74c0.56,0,1.077,0.073,1.55,0.221
		c0.473,0.146,0.883,0.373,1.23,0.68c0.346,0.307,0.617,0.7,0.811,1.18c0.193,0.48,0.289,1.054,0.289,1.72V27.737z M29.299,24.837
		c0,0.48,0.143,0.857,0.43,1.131c0.287,0.273,0.697,0.409,1.23,0.409c0.32,0,0.65-0.053,0.99-0.159
		c0.34-0.107,0.643-0.28,0.91-0.521s0.487-0.557,0.66-0.95c0.173-0.393,0.26-0.876,0.26-1.45v-0.239h-1.8
		c-0.867,0-1.53,0.153-1.99,0.46C29.529,23.824,29.299,24.265,29.299,24.837z"/>
	<path d="M44.339,19.297c-0.373-0.187-0.767-0.279-1.18-0.279c-0.347,0-0.687,0.1-1.02,0.3c-0.334,0.2-0.634,0.507-0.9,0.92
		s-0.483,0.927-0.65,1.54c-0.166,0.613-0.25,1.327-0.25,2.14v3.82h-1.68v-10.08h1.68v1.72c0.147-0.279,0.334-0.536,0.561-0.77
		s0.47-0.43,0.729-0.59c0.261-0.16,0.533-0.287,0.82-0.38c0.287-0.094,0.57-0.141,0.851-0.141c0.279,0,0.543,0.03,0.789,0.09
		c0.247,0.061,0.443,0.131,0.591,0.21L44.339,19.297z"/>
	<path d="M45.579,17.657h1.74v-3.02l1.68-1.061v4.08h2.64v1.521h-2.64v5.54c0,0.547,0.116,0.96,0.35,1.239
		c0.233,0.28,0.563,0.42,0.99,0.42c0.227,0,0.427-0.022,0.601-0.069c0.173-0.047,0.353-0.13,0.54-0.25l0.399,1.46
		c-0.24,0.146-0.5,0.246-0.78,0.3c-0.279,0.053-0.566,0.08-0.859,0.08c-0.854,0-1.554-0.267-2.101-0.8s-0.819-1.373-0.819-2.521
		v-5.399h-1.74V17.657z"/>
	<path d="M66.739,17.657l-3.32,10.08h-1.72l-3.32-10.08h1.72l2.46,7.94l2.46-7.94H66.739z"/>
	<path d="M77.319,23.058h-7.4c0.026,0.467,0.104,0.899,0.23,1.3c0.126,0.399,0.307,0.75,0.54,1.05c0.232,0.3,0.522,0.537,0.87,0.71
		c0.346,0.174,0.746,0.26,1.199,0.26c0.747,0,1.33-0.163,1.75-0.489c0.42-0.327,0.771-0.804,1.051-1.431l1.479,0.641
		c-0.467,0.986-1.037,1.699-1.71,2.14c-0.674,0.44-1.53,0.66-2.57,0.66c-0.76,0-1.427-0.144-2-0.43
		c-0.573-0.287-1.05-0.671-1.43-1.15c-0.38-0.48-0.663-1.033-0.85-1.66c-0.188-0.627-0.28-1.28-0.28-1.96s0.093-1.333,0.28-1.96
		c0.187-0.627,0.47-1.18,0.85-1.66c0.38-0.479,0.856-0.863,1.43-1.149c0.573-0.287,1.24-0.431,2-0.431
		c0.747,0,1.403,0.134,1.971,0.4c0.566,0.267,1.043,0.62,1.43,1.06c0.387,0.44,0.677,0.947,0.87,1.521s0.29,1.173,0.29,1.8V23.058z
		 M72.759,19.018c-0.786,0-1.403,0.236-1.85,0.71c-0.447,0.474-0.743,1.076-0.89,1.81h5.54c-0.147-0.72-0.447-1.319-0.9-1.8
		S73.572,19.018,72.759,19.018z"/>
	<path d="M88.139,27.737h-1.681v-6.66c0-0.693-0.149-1.21-0.449-1.55c-0.301-0.34-0.73-0.51-1.29-0.51
		c-0.374,0-0.733,0.104-1.08,0.31c-0.348,0.207-0.653,0.504-0.92,0.891c-0.268,0.387-0.48,0.859-0.641,1.42
		c-0.16,0.56-0.24,1.187-0.24,1.88v4.22h-1.68v-10.08h1.68v1.86c0.374-0.653,0.847-1.153,1.421-1.5
		c0.572-0.347,1.213-0.521,1.92-0.521c0.92,0,1.643,0.273,2.17,0.82c0.526,0.547,0.79,1.32,0.79,2.32V27.737z"/>
	<path d="M90.938,22.697c0-0.76,0.093-1.456,0.28-2.09c0.187-0.633,0.47-1.18,0.85-1.64c0.38-0.461,0.847-0.82,1.4-1.08
		c0.553-0.261,1.203-0.391,1.949-0.391c0.32,0,0.637,0.044,0.95,0.13c0.313,0.087,0.604,0.197,0.87,0.33
		c0.267,0.134,0.5,0.28,0.7,0.44s0.34,0.313,0.42,0.46v-5.28h1.68v14.16h-1.68v-1.24c-0.12,0.188-0.283,0.363-0.49,0.53
		s-0.439,0.316-0.7,0.45c-0.26,0.133-0.54,0.236-0.84,0.31s-0.604,0.11-0.91,0.11c-0.746,0-1.396-0.13-1.949-0.391
		c-0.554-0.26-1.021-0.619-1.4-1.079s-0.663-1.007-0.85-1.641C91.031,24.154,90.938,23.457,90.938,22.697z M92.658,22.697
		c0,0.547,0.07,1.044,0.21,1.49c0.141,0.446,0.337,0.833,0.59,1.16c0.254,0.326,0.561,0.58,0.92,0.76c0.36,0.18,0.761,0.27,1.2,0.27
		c0.453,0,0.863-0.09,1.23-0.27c0.366-0.18,0.673-0.434,0.92-0.76c0.246-0.327,0.437-0.714,0.57-1.16
		c0.133-0.446,0.199-0.943,0.199-1.49c0-0.533-0.066-1.026-0.199-1.479c-0.134-0.453-0.324-0.844-0.57-1.171
		c-0.247-0.326-0.554-0.579-0.92-0.76c-0.367-0.18-0.777-0.27-1.23-0.27c-0.439,0-0.84,0.09-1.2,0.27
		c-0.359,0.181-0.666,0.434-0.92,0.76c-0.253,0.327-0.449,0.718-0.59,1.171C92.729,21.671,92.658,22.164,92.658,22.697z"/>
	<path d="M103.319,14.857c0-0.36,0.119-0.663,0.359-0.91c0.24-0.246,0.54-0.37,0.9-0.37c0.359,0,0.66,0.124,0.899,0.37
		c0.24,0.247,0.36,0.55,0.36,0.91c0,0.347-0.12,0.64-0.36,0.88c-0.239,0.24-0.54,0.36-0.899,0.36c-0.36,0-0.66-0.12-0.9-0.36
		S103.319,15.204,103.319,14.857z M105.419,17.657v10.08h-1.68v-10.08H105.419z"/>
	<path d="M117.099,27.737h-1.681v-6.66c0-0.693-0.149-1.21-0.449-1.55c-0.301-0.34-0.73-0.51-1.29-0.51
		c-0.374,0-0.733,0.104-1.08,0.31c-0.348,0.207-0.653,0.504-0.92,0.891c-0.268,0.387-0.48,0.859-0.641,1.42
		c-0.16,0.56-0.24,1.187-0.24,1.88v4.22h-1.68v-10.08h1.68v1.86c0.374-0.653,0.847-1.153,1.421-1.5
		c0.572-0.347,1.213-0.521,1.92-0.521c0.92,0,1.643,0.273,2.17,0.82c0.526,0.547,0.79,1.32,0.79,2.32V27.737z"/>
	<path d="M120.618,20.897c0-0.521,0.09-0.99,0.271-1.41c0.18-0.42,0.43-0.776,0.75-1.07c0.319-0.293,0.692-0.52,1.12-0.68
		c0.426-0.16,0.886-0.24,1.38-0.24c0.333,0,0.652,0.04,0.96,0.12c0.307,0.08,0.593,0.193,0.859,0.34l1.801-1.02l0.76,1.38
		l-1.36,0.76c0.333,0.521,0.5,1.127,0.5,1.82c0,0.52-0.09,0.99-0.27,1.41c-0.181,0.42-0.431,0.773-0.75,1.06
		c-0.32,0.287-0.693,0.507-1.12,0.66s-0.887,0.229-1.38,0.229c-0.667,0-1.247-0.119-1.74-0.359c-0.44,0.213-0.66,0.54-0.66,0.979
		c0,0.561,0.38,0.841,1.14,0.841h2.381c0.946,0,1.71,0.233,2.29,0.699c0.579,0.467,0.869,1.16,0.869,2.08
		c0,0.627-0.113,1.16-0.34,1.601c-0.227,0.439-0.537,0.8-0.93,1.08c-0.394,0.279-0.847,0.482-1.36,0.609
		c-0.513,0.127-1.057,0.19-1.63,0.19c-0.64,0-1.224-0.073-1.75-0.221c-0.526-0.146-0.977-0.363-1.35-0.649
		c-0.374-0.287-0.664-0.637-0.87-1.05c-0.207-0.414-0.311-0.88-0.311-1.4c0-0.467,0.091-0.877,0.271-1.229
		c0.18-0.354,0.403-0.644,0.67-0.87c-0.214-0.187-0.38-0.41-0.5-0.67c-0.12-0.261-0.18-0.57-0.18-0.931
		c0-0.427,0.109-0.796,0.33-1.109c0.22-0.313,0.517-0.563,0.89-0.75c-0.227-0.28-0.407-0.604-0.54-0.971
		C120.685,21.761,120.618,21.351,120.618,20.897z M122.958,27.157c-0.133,0-0.263-0.003-0.39-0.01s-0.243-0.017-0.35-0.03
		c-0.24,0.187-0.41,0.403-0.511,0.65c-0.1,0.246-0.149,0.522-0.149,0.83c0,0.56,0.217,1.017,0.649,1.37
		c0.434,0.353,1.083,0.529,1.95,0.529c0.88,0,1.523-0.177,1.93-0.529c0.407-0.354,0.61-0.79,0.61-1.311c0-0.56-0.16-0.95-0.479-1.17
		c-0.32-0.22-0.728-0.33-1.221-0.33H122.958z M122.259,20.897c0,0.64,0.187,1.12,0.56,1.439c0.373,0.32,0.813,0.48,1.32,0.48
		c0.506,0,0.946-0.16,1.319-0.48c0.373-0.319,0.561-0.8,0.561-1.439c0-0.641-0.188-1.127-0.561-1.46s-0.813-0.5-1.319-0.5
		c-0.507,0-0.947,0.167-1.32,0.5S122.259,20.257,122.259,20.897z"/>
	<path d="M15.479,46.737h-1.68v-6.74c0-1.319-0.54-1.979-1.62-1.979c-0.36,0-0.704,0.1-1.03,0.3s-0.613,0.497-0.86,0.89
		c-0.247,0.394-0.44,0.874-0.58,1.44s-0.21,1.217-0.21,1.95v4.14h-1.68v-6.74c0-1.319-0.54-1.979-1.62-1.979
		c-0.36,0-0.704,0.1-1.03,0.3s-0.613,0.497-0.86,0.89c-0.247,0.394-0.44,0.874-0.58,1.44s-0.21,1.217-0.21,1.95v4.14h-1.68v-10.08
		h1.68v1.86c0.32-0.641,0.747-1.137,1.28-1.49s1.153-0.53,1.86-0.53c0.707,0,1.293,0.184,1.76,0.55
		c0.467,0.367,0.78,0.884,0.94,1.551c0.347-0.667,0.8-1.184,1.36-1.551c0.56-0.366,1.2-0.55,1.92-0.55c0.92,0,1.623,0.28,2.11,0.84
		c0.486,0.561,0.73,1.327,0.73,2.301V46.737z"/>
	<path d="M26.239,46.737h-1.32l-0.28-1.42c-0.32,0.467-0.737,0.847-1.25,1.14s-1.15,0.44-1.91,0.44c-0.427,0-0.827-0.057-1.2-0.17
		c-0.374-0.113-0.704-0.297-0.99-0.55c-0.287-0.254-0.513-0.57-0.68-0.95c-0.167-0.38-0.25-0.844-0.25-1.391
		c0-0.533,0.106-1.006,0.32-1.42c0.213-0.413,0.52-0.76,0.92-1.04c0.4-0.279,0.88-0.489,1.44-0.63c0.56-0.14,1.187-0.21,1.88-0.21
		h1.64v-0.439c0-0.773-0.213-1.313-0.64-1.62c-0.427-0.307-0.947-0.46-1.56-0.46c-0.52,0-0.974,0.137-1.36,0.41
		s-0.633,0.663-0.74,1.17l-1.48-0.341c0.146-0.853,0.54-1.526,1.18-2.02c0.64-0.493,1.44-0.74,2.4-0.74
		c0.56,0,1.077,0.073,1.55,0.221c0.473,0.146,0.883,0.373,1.23,0.68s0.617,0.7,0.81,1.18c0.193,0.48,0.29,1.054,0.29,1.72V46.737z
		 M20.079,43.837c0,0.48,0.143,0.857,0.43,1.131c0.287,0.273,0.697,0.409,1.23,0.409c0.32,0,0.65-0.053,0.99-0.159
		c0.34-0.107,0.643-0.28,0.91-0.521s0.487-0.557,0.66-0.95c0.173-0.393,0.26-0.876,0.26-1.45v-0.239h-1.8
		c-0.867,0-1.53,0.153-1.99,0.46C20.309,42.824,20.079,43.265,20.079,43.837z"/>
	<path d="M37.479,44.117c-0.412,0.947-0.959,1.647-1.639,2.101c-0.682,0.453-1.541,0.68-2.581,0.68c-0.773,0-1.447-0.144-2.02-0.43
		c-0.574-0.287-1.05-0.671-1.43-1.15c-0.38-0.48-0.664-1.033-0.85-1.66s-0.28-1.28-0.28-1.96s0.093-1.333,0.28-1.96
		s0.47-1.18,0.85-1.66c0.38-0.479,0.856-0.863,1.43-1.149c0.573-0.287,1.247-0.431,2.02-0.431c1.04,0,1.899,0.228,2.581,0.681
		c0.68,0.453,1.227,1.153,1.639,2.1l-1.459,0.6c-0.268-0.612-0.621-1.076-1.061-1.39s-1.007-0.47-1.7-0.47
		c-0.494,0-0.92,0.097-1.28,0.29c-0.36,0.193-0.657,0.457-0.89,0.79c-0.234,0.333-0.407,0.723-0.52,1.17
		c-0.114,0.446-0.17,0.923-0.17,1.43s0.057,0.983,0.17,1.43c0.113,0.447,0.286,0.837,0.52,1.17c0.233,0.334,0.53,0.598,0.89,0.79
		c0.36,0.193,0.787,0.29,1.28,0.29c0.693,0,1.26-0.156,1.7-0.47s0.793-0.776,1.061-1.39L37.479,44.117z"/>
	<path d="M48.34,46.737h-1.681v-6.66c0-0.693-0.149-1.21-0.45-1.55c-0.3-0.34-0.729-0.51-1.29-0.51c-0.373,0-0.739,0.1-1.1,0.3
		s-0.684,0.49-0.97,0.87c-0.287,0.38-0.521,0.847-0.7,1.399c-0.18,0.554-0.271,1.178-0.271,1.87v4.28h-1.68v-14.16h1.68v5.96
		c0.32-0.613,0.787-1.106,1.4-1.479s1.313-0.561,2.1-0.561c0.921,0,1.644,0.271,2.171,0.811c0.526,0.54,0.79,1.35,0.79,2.43V46.737z
		"/>
	<path d="M51.499,33.857c0-0.36,0.119-0.663,0.359-0.91c0.24-0.246,0.54-0.37,0.9-0.37c0.359,0,0.66,0.124,0.899,0.37
		c0.24,0.247,0.36,0.55,0.36,0.91c0,0.347-0.12,0.64-0.36,0.88c-0.239,0.24-0.54,0.36-0.899,0.36c-0.36,0-0.66-0.12-0.9-0.36
		S51.499,34.204,51.499,33.857z M53.599,36.657v10.08h-1.68v-10.08H53.599z"/>
	<path d="M65.279,46.737h-1.681v-6.66c0-0.693-0.149-1.21-0.449-1.55c-0.301-0.34-0.73-0.51-1.29-0.51
		c-0.374,0-0.733,0.104-1.08,0.31c-0.348,0.207-0.653,0.504-0.92,0.891c-0.268,0.387-0.48,0.859-0.641,1.42
		c-0.16,0.56-0.24,1.187-0.24,1.88v4.22h-1.68v-10.08h1.68v1.86c0.374-0.653,0.847-1.153,1.421-1.5
		c0.572-0.347,1.213-0.521,1.92-0.521c0.92,0,1.643,0.273,2.17,0.82c0.526,0.547,0.79,1.32,0.79,2.32V46.737z"/>
	<path d="M77.199,42.058h-7.4c0.026,0.467,0.104,0.899,0.23,1.3c0.126,0.399,0.307,0.75,0.54,1.05c0.232,0.3,0.522,0.537,0.87,0.71
		c0.346,0.174,0.746,0.26,1.199,0.26c0.747,0,1.33-0.163,1.75-0.489c0.42-0.327,0.771-0.804,1.051-1.431l1.479,0.641
		c-0.467,0.986-1.037,1.699-1.71,2.14c-0.674,0.44-1.53,0.66-2.57,0.66c-0.76,0-1.427-0.144-2-0.43
		c-0.573-0.287-1.05-0.671-1.43-1.15c-0.38-0.48-0.663-1.033-0.85-1.66c-0.188-0.627-0.28-1.28-0.28-1.96s0.093-1.333,0.28-1.96
		c0.187-0.627,0.47-1.18,0.85-1.66c0.38-0.479,0.856-0.863,1.43-1.149c0.573-0.287,1.24-0.431,2-0.431
		c0.747,0,1.403,0.134,1.971,0.4c0.566,0.267,1.043,0.62,1.43,1.06c0.387,0.44,0.677,0.947,0.87,1.521s0.29,1.173,0.29,1.8V42.058z
		 M72.639,38.018c-0.786,0-1.403,0.236-1.85,0.71c-0.447,0.474-0.743,1.076-0.89,1.81h5.54c-0.147-0.72-0.447-1.319-0.9-1.8
		S73.452,38.018,72.639,38.018z"/>
</g>
<path fill="none" stroke="#000000" stroke-width="1.5" stroke-miterlimit="10" d="M163.629,30.773c0,0.864-0.701,1.564-1.566,1.564
	h-24.997c-0.866,0-1.566-0.7-1.566-1.564V3.402c0-0.865,0.7-1.565,1.566-1.565h24.997c0.865,0,1.566,0.701,1.566,1.565V30.773z"/>
<line fill="none" stroke="#000000" stroke-width="1.5" stroke-miterlimit="10" x1="151.555" y1="32.324" x2="151.555" y2="1.855"/>
<path fill="none" stroke="#41C363" stroke-width="1.5" stroke-miterlimit="10" d="M140.39,8.016v1.882
	c0,1.255,1.018,2.272,2.272,2.272l0,0c1.257,0,2.274-1.017,2.274-2.272V8.016H140.39z"/>
<polyline fill="none" stroke="#41C363" stroke-width="1.5" stroke-miterlimit="10" points="144.532,8.016 147.205,8.016 
	147.205,10.386 "/>
<rect x="139.268" y="21.722" fill="none" stroke="#000000" stroke-width="1.5" stroke-miterlimit="10" width="8.587" height="4.875"/>
<line fill="none" stroke="#000000" stroke-width="1.5" stroke-miterlimit="10" x1="140.973" y1="24.626" x2="146.15" y2="24.626"/>
<path fill="none" stroke="#000000" stroke-width="1.5" stroke-miterlimit="10" d="M160.106,12.761V9.986
	c0-1.255-1.019-2.272-2.273-2.272l0,0c-1.254,0-2.274,1.018-2.274,2.272v2.774"/>
<line fill="none" stroke="#000000" stroke-width="1.5" stroke-miterlimit="10" x1="155.209" y1="10.906" x2="159.668" y2="10.906"/>
<path fill="none" stroke="#000000" stroke-width="1.5" stroke-miterlimit="10" d="M155.533,22.143v2.776
	c0,1.255,1.017,2.271,2.272,2.271l0,0c1.254,0,2.273-1.016,2.273-2.271v-2.776"/>
<line fill="none" stroke="#000000" stroke-width="1.5" stroke-miterlimit="10" x1="160.429" y1="23.998" x2="155.973" y2="23.998"/>
<line fill="none" stroke="#000000" stroke-width="1.5" stroke-miterlimit="10" x1="154.865" y1="14.659" x2="157.159" y2="14.659"/>
<line fill="none" stroke="#41C363" stroke-width="1.5" stroke-miterlimit="10" x1="158.554" y1="14.659" x2="160.848" y2="14.659"/>
<line fill="none" stroke="#000000" stroke-width="1.5" stroke-miterlimit="10" x1="154.865" y1="17.421" x2="157.159" y2="17.421"/>
<line fill="none" stroke="#000000" stroke-width="1.5" stroke-miterlimit="10" x1="158.554" y1="17.421" x2="160.848" y2="17.421"/>
<line fill="none" stroke="#000000" stroke-width="1.5" stroke-miterlimit="10" x1="154.865" y1="20.183" x2="157.159" y2="20.183"/>
<line fill="none" stroke="#41C363" stroke-width="1.5" stroke-miterlimit="10" x1="158.554" y1="20.183" x2="160.848" y2="20.183"/>
<line fill="none" stroke="#000000" stroke-width="1.5" stroke-linecap="round" stroke-miterlimit="10" x1="140.396" y1="32.757" x2="140.396" y2="34.262"/>
<line fill="none" stroke="#000000" stroke-width="1.5" stroke-linecap="round" stroke-miterlimit="10" x1="158.761" y1="32.794" x2="158.761" y2="34.262"/>
</svg>
