<?xml version="1.0" encoding="utf-8"?>
<!-- Generator: Adobe Illustrator 16.0.0, SVG Export Plug-In . SVG Version: 6.00 Build 0)  -->
<!DOCTYPE svg PUBLIC "-//W3C//DTD SVG 1.1//EN" "http://www.w3.org/Graphics/SVG/1.1/DTD/svg11.dtd">
<svg version="1.1" id="Layer_1" xmlns="http://www.w3.org/2000/svg" xmlns:xlink="http://www.w3.org/1999/xlink" x="0px" y="0px"
	 width="455.847px" height="68px" viewBox="0 0 455.847 68" enable-background="new 0 0 455.847 68" xml:space="preserve">
<g>
	<g>
		<path fill="none" stroke="#FFFFFF" stroke-width="1.5" d="M12.621,23.707c-1.753,0.006-3.506,0.01-5.26,0.017
			c-0.73,0.006-0.882-0.146-0.94-0.87c-0.2-2.403,0.187-4.715,1.244-6.881c2.046-4.182,5.364-6.794,9.952-7.614
			c2.798-0.498,5.532-0.137,7.938,0.938"/>
		<path fill="none" stroke="#FFFFFF" stroke-width="1.5" d="M20.517,26.322c-1.439-0.032-2.621-0.804-3.171-2.13
			c-0.625-1.5-0.991-3.079-1.297-4.669c-0.215-1.113-0.386-2.236-0.562-3.354c-0.025-0.171-0.011-0.369,0.047-0.533
			c0.101-0.29,0.456-0.438,0.757-0.341c0.133,0.044,0.265,0.109,0.377,0.192c1.942,1.431,3.843,2.914,5.551,4.627
			c0.293,0.292,0.567,0.608,0.845,0.919c1.575,1.761,0.727,4.457-1.596,5.122C21.159,26.239,20.833,26.268,20.517,26.322z"/>
		<path fill="none" stroke="#41C363" stroke-width="1.5" d="M25.479,9.261c2.834,1.246,5.224,3.476,6.724,6.454
			c1.114,2.21,1.563,4.563,1.372,7.037c-0.01,0.111-0.01,0.223-0.018,0.334c-0.029,0.371-0.273,0.632-0.646,0.632
			c-1.914,0.001-3.229-0.005-5.145-0.015"/>
	</g>
</g>
<g>
	<g>
		<path fill="none" stroke="#FFFFFF" stroke-width="1.5" d="M12.621,58.289c-1.753,0.006-3.506,0.01-5.26,0.021
			c-0.73,0.006-0.882-0.146-0.94-0.869c-0.2-2.398,0.187-4.725,1.244-6.887c2.046-4.186,5.364-6.799,9.952-7.609
			c2.798-0.498,5.532-0.141,7.938,0.938"/>
		<path fill="none" stroke="#FFFFFF" stroke-width="1.5" d="M20.517,60.902c-1.439-0.031-2.621-0.805-3.171-2.131
			c-0.625-1.5-0.991-3.078-1.297-4.67c-0.215-1.113-0.386-2.236-0.562-3.354c-0.025-0.172-0.011-0.369,0.047-0.533
			c0.101-0.289,0.456-0.438,0.757-0.342c0.133,0.045,0.265,0.108,0.377,0.19c1.942,1.433,3.843,2.914,5.551,4.627
			c0.293,0.293,0.567,0.608,0.845,0.922c1.575,1.761,0.727,4.455-1.596,5.121C21.159,60.818,20.833,60.848,20.517,60.902z"/>
		<path fill="none" stroke="#000000" stroke-width="1.5" d="M25.479,43.84c2.834,1.246,5.224,3.477,6.724,6.455
			c1.114,2.209,1.563,4.563,1.372,7.035c-0.01,0.104-0.01,0.225-0.018,0.334c-0.029,0.365-0.273,0.633-0.646,0.633
			c-1.914,0.002-3.229-0.004-5.145-0.021"/>
	</g>
</g>
<polyline fill="none" stroke="#41C363" stroke-width="1.5" stroke-linecap="round" stroke-linejoin="round" stroke-miterlimit="10" points="
	288.718,19.111 288.074,19.111 288.074,12.721 292.015,12.721 "/>
<polyline fill="none" stroke="#FFFFFF" stroke-width="1.5" stroke-linecap="round" stroke-linejoin="round" stroke-miterlimit="10" points="
	293.378,12.721 294.462,12.721 294.462,19.111 291.271,19.111 "/>
<line fill="none" stroke="#41C363" stroke-width="1.5" stroke-linecap="round" stroke-linejoin="round" stroke-miterlimit="10" x1="303.458" y1="21.382" x2="298.401" y2="21.382"/>
<line fill="none" stroke="#FFFFFF" stroke-width="1.5" stroke-linecap="round" stroke-linejoin="round" stroke-miterlimit="10" x1="298.401" y1="10.451" x2="303.458" y2="10.451"/>
<line fill="none" stroke="#FFFFFF" stroke-width="1.5" stroke-linecap="round" stroke-linejoin="round" stroke-miterlimit="10" x1="298.401" y1="15.917" x2="303.458" y2="15.917"/>
<line fill="none" stroke="#FFFFFF" stroke-width="1.5" stroke-linecap="round" stroke-linejoin="round" stroke-miterlimit="10" x1="284.134" y1="21.382" x2="279.078" y2="21.382"/>
<line fill="none" stroke="#FFFFFF" stroke-width="1.5" stroke-linecap="round" stroke-linejoin="round" stroke-miterlimit="10" x1="279.078" y1="10.451" x2="284.134" y2="10.451"/>
<line fill="none" stroke="#FFFFFF" stroke-width="1.5" stroke-linecap="round" stroke-linejoin="round" stroke-miterlimit="10" x1="279.078" y1="15.917" x2="284.134" y2="15.917"/>
<line fill="none" stroke="#FFFFFF" stroke-width="1.5" stroke-linecap="round" stroke-linejoin="round" stroke-miterlimit="10" x1="296.733" y1="3.726" x2="296.733" y2="8.783"/>
<line fill="none" stroke="#FFFFFF" stroke-width="1.5" stroke-linecap="round" stroke-linejoin="round" stroke-miterlimit="10" x1="285.806" y1="8.783" x2="285.806" y2="3.726"/>
<line fill="none" stroke="#FFFFFF" stroke-width="1.5" stroke-linecap="round" stroke-linejoin="round" stroke-miterlimit="10" x1="291.271" y1="8.783" x2="291.271" y2="3.726"/>
<line fill="none" stroke="#FFFFFF" stroke-width="1.5" stroke-linecap="round" stroke-linejoin="round" stroke-miterlimit="10" x1="296.733" y1="23.05" x2="296.733" y2="28.108"/>
<line fill="none" stroke="#FFFFFF" stroke-width="1.5" stroke-linecap="round" stroke-linejoin="round" stroke-miterlimit="10" x1="285.806" y1="28.108" x2="285.806" y2="23.05"/>
<line fill="none" stroke="#FFFFFF" stroke-width="1.5" stroke-linecap="round" stroke-linejoin="round" stroke-miterlimit="10" x1="291.271" y1="28.108" x2="291.271" y2="23.05"/>
<polyline fill="none" stroke="#FFFFFF" stroke-width="1.5" stroke-linecap="round" stroke-linejoin="round" stroke-miterlimit="10" points="
	297.496,24.497 282.688,24.497 282.688,7.336 299.851,7.336 299.851,16.531 "/>
<polyline fill="none" stroke="#41C363" stroke-width="1.5" stroke-linecap="square" stroke-linejoin="round" stroke-miterlimit="10" points="
	299.851,17.323 299.851,24.497 298.187,24.497 "/>
<polyline fill="none" stroke="#000000" stroke-width="1.5" stroke-linecap="round" stroke-linejoin="round" stroke-miterlimit="10" points="
	288.718,53.111 288.074,53.111 288.074,46.721 292.015,46.721 "/>
<polyline fill="none" stroke="#FFFFFF" stroke-width="1.5" stroke-linecap="round" stroke-linejoin="round" stroke-miterlimit="10" points="
	293.378,46.721 294.462,46.721 294.462,53.111 291.271,53.111 "/>
<line fill="none" stroke="#000000" stroke-width="1.5" stroke-linecap="round" stroke-linejoin="round" stroke-miterlimit="10" x1="303.458" y1="55.383" x2="298.401" y2="55.383"/>
<line fill="none" stroke="#FFFFFF" stroke-width="1.5" stroke-linecap="round" stroke-linejoin="round" stroke-miterlimit="10" x1="298.401" y1="44.451" x2="303.458" y2="44.451"/>
<line fill="none" stroke="#FFFFFF" stroke-width="1.5" stroke-linecap="round" stroke-linejoin="round" stroke-miterlimit="10" x1="298.401" y1="49.918" x2="303.458" y2="49.918"/>
<line fill="none" stroke="#FFFFFF" stroke-width="1.5" stroke-linecap="round" stroke-linejoin="round" stroke-miterlimit="10" x1="284.134" y1="55.383" x2="279.078" y2="55.383"/>
<line fill="none" stroke="#FFFFFF" stroke-width="1.5" stroke-linecap="round" stroke-linejoin="round" stroke-miterlimit="10" x1="279.078" y1="44.451" x2="284.134" y2="44.451"/>
<line fill="none" stroke="#FFFFFF" stroke-width="1.5" stroke-linecap="round" stroke-linejoin="round" stroke-miterlimit="10" x1="279.078" y1="49.918" x2="284.134" y2="49.918"/>
<line fill="none" stroke="#FFFFFF" stroke-width="1.5" stroke-linecap="round" stroke-linejoin="round" stroke-miterlimit="10" x1="296.733" y1="37.727" x2="296.733" y2="42.783"/>
<line fill="none" stroke="#FFFFFF" stroke-width="1.5" stroke-linecap="round" stroke-linejoin="round" stroke-miterlimit="10" x1="285.806" y1="42.783" x2="285.806" y2="37.727"/>
<line fill="none" stroke="#FFFFFF" stroke-width="1.5" stroke-linecap="round" stroke-linejoin="round" stroke-miterlimit="10" x1="291.271" y1="42.783" x2="291.271" y2="37.727"/>
<line fill="none" stroke="#FFFFFF" stroke-width="1.5" stroke-linecap="round" stroke-linejoin="round" stroke-miterlimit="10" x1="296.733" y1="57.051" x2="296.733" y2="62.107"/>
<line fill="none" stroke="#FFFFFF" stroke-width="1.5" stroke-linecap="round" stroke-linejoin="round" stroke-miterlimit="10" x1="285.806" y1="62.107" x2="285.806" y2="57.051"/>
<line fill="none" stroke="#FFFFFF" stroke-width="1.5" stroke-linecap="round" stroke-linejoin="round" stroke-miterlimit="10" x1="291.271" y1="62.107" x2="291.271" y2="57.051"/>
<polyline fill="none" stroke="#FFFFFF" stroke-width="1.5" stroke-linecap="round" stroke-linejoin="round" stroke-miterlimit="10" points="
	297.496,58.498 282.688,58.498 282.688,41.336 299.851,41.336 299.851,50.531 "/>
<polyline fill="none" stroke="#000000" stroke-width="1.5" stroke-linecap="square" stroke-linejoin="round" stroke-miterlimit="10" points="
	299.851,51.322 299.851,58.498 298.187,58.498 "/>
<g>
	<path fill="none" stroke="#FFFFFF" stroke-width="1.5" stroke-miterlimit="10" d="M359.871,26.581c-0.344,0-0.691,0-1.033,0
		c-1.443,0-4.438,0.002-5.883-0.001c-1.137-0.001-2.016-0.667-2.303-1.741c-0.057-0.213-0.08-0.442-0.08-0.664
		c-0.012-2.685-0.004-5.368-0.004-8.048c0-2.673-0.008-5.349,0-8.022c0.002-1.405,0.998-2.417,2.406-2.417
		c4.689-0.004,9.395,0.003,14.096-0.006c1.373-0.001,2.412,1.103,2.41,2.351c-0.021,2.319-0.004,6.96-0.01,9.28"/>
</g>
<g>
	<path fill="none" stroke="#FFFFFF" stroke-width="1.5" stroke-miterlimit="10" d="M355.267,10.124
		c-0.086,0-0.158,0.071-0.158,0.158v2.04c0,0.088,0.068,0.159,0.158,0.159h8.982c0.088,0,0.158-0.067,0.158-0.159v-2.04
		c0-0.089-0.07-0.158-0.158-0.158H355.267z"/>
</g>
<g>
	<g>
		<path fill="none" stroke="#41C363" stroke-width="1.5" stroke-miterlimit="10" d="M362.57,17.768
			c4.684,0.589,8.359,4.445,8.926,8.912"/>
	</g>
	<g>
		<path fill="none" stroke="#FFFFFF" stroke-width="1.5" stroke-miterlimit="10" d="M362.562,21.054
			c3.023,0.576,5.176,3.077,5.631,5.627"/>
	</g>
	<g>
		<path fill="#FFFFFF" d="M363.601,24.822c0.521,0.002,0.938,0.427,0.934,0.96c-0.008,0.513-0.426,0.919-0.949,0.917
			c-0.52-0.003-0.936-0.425-0.934-0.962C362.66,25.23,363.08,24.82,363.601,24.822z"/>
	</g>
</g>
<g>
	<path fill="none" stroke="#FFFFFF" stroke-width="1.5" stroke-miterlimit="10" d="M359.607,15.935h-5.129"/>
</g>
<g>
	<path fill="none" stroke="#FFFFFF" stroke-width="1.5" stroke-miterlimit="10" d="M359.607,19.208h-5.129"/>
</g>
<g>
	<path fill="none" stroke="#FFFFFF" stroke-width="1.5" stroke-miterlimit="10" d="M359.607,22.482h-5.129"/>
</g>
<g>
	<path fill="none" stroke="#41C363" stroke-width="1.5" stroke-miterlimit="10" d="M359.871,26.581c-0.344,0-0.691,0-1.033,0
		c-1.443,0-4.438,0.002-5.883-0.001c-1.137-0.001-2.016-0.667-2.303-1.741c-0.057-0.213-0.08-0.442-0.08-0.664
		c-0.012-2.685-0.004-5.368-0.004-8.048"/>
</g>
<g>
	<path fill="none" stroke="#FFFFFF" stroke-width="1.5" stroke-miterlimit="10" d="M359.871,60.967c-0.344,0-0.691,0-1.033,0
		c-1.443,0-4.438,0.002-5.883-0.002c-1.137,0-2.016-0.666-2.303-1.74c-0.057-0.213-0.08-0.439-0.08-0.664
		c-0.012-2.686-0.004-5.367-0.004-8.047c0-2.674-0.008-5.348,0-8.021c0.002-1.406,0.998-2.414,2.406-2.414
		c4.689-0.006,9.395,0.002,14.096-0.011c1.373-0.002,2.412,1.103,2.41,2.353c-0.021,2.317-0.004,6.961-0.01,9.279"/>
</g>
<g>
	<path fill="none" stroke="#FFFFFF" stroke-width="1.5" stroke-miterlimit="10" d="M355.267,44.51c-0.086,0-0.158,0.07-0.158,0.158
		v2.039c0,0.09,0.068,0.154,0.158,0.154h8.982c0.088,0,0.158-0.063,0.158-0.154v-2.039c0-0.09-0.07-0.158-0.158-0.158H355.267
		L355.267,44.51z"/>
</g>
<g>
	<g>
		<path fill="none" stroke="#000000" stroke-width="1.5" stroke-miterlimit="10" d="M362.57,52.152
			c4.684,0.59,8.359,4.445,8.926,8.912"/>
	</g>
	<g>
		<path fill="none" stroke="#FFFFFF" stroke-width="1.5" stroke-miterlimit="10" d="M362.562,55.439
			c3.023,0.576,5.176,3.076,5.631,5.627"/>
	</g>
	<g>
		<path fill="#FFFFFF" d="M363.601,59.209c0.521,0,0.938,0.426,0.934,0.959c-0.008,0.518-0.426,0.914-0.949,0.912
			c-0.52-0.002-0.936-0.424-0.934-0.961C362.66,59.615,363.08,59.207,363.601,59.209z"/>
	</g>
</g>
<g>
	<path fill="none" stroke="#FFFFFF" stroke-width="1.5" stroke-miterlimit="10" d="M359.607,50.32h-5.129"/>
</g>
<g>
	<path fill="none" stroke="#FFFFFF" stroke-width="1.5" stroke-miterlimit="10" d="M359.607,53.594h-5.129"/>
</g>
<g>
	<path fill="none" stroke="#FFFFFF" stroke-width="1.5" stroke-miterlimit="10" d="M359.607,56.867h-5.129"/>
</g>
<g>
	<path fill="none" stroke="#000000" stroke-width="1.5" stroke-miterlimit="10" d="M359.871,60.967c-0.344,0-0.691,0-1.033,0
		c-1.443,0-4.438,0.002-5.883-0.002c-1.137,0-2.016-0.666-2.303-1.74c-0.057-0.213-0.08-0.439-0.08-0.664
		c-0.012-2.686-0.004-5.367-0.004-8.047"/>
</g>
<g id="Livello_110">
	<path fill="none" stroke="#FFFFFF" stroke-width="1.5" stroke-miterlimit="10" d="M65.718,13.787c0,2.448-1.995,4.434-4.454,4.434
		c-2.461,0-4.455-1.986-4.455-4.434c0-2.448,1.995-4.434,4.455-4.434C63.725,9.353,65.718,11.338,65.718,13.787"/>
</g>
<path fill="none" stroke="#41C363" stroke-width="1.5" stroke-miterlimit="10" d="M64.986,24.251l2.965-4.225
	c0.251-0.311,0.479-0.641,0.686-0.985l0.071-0.101l0.437-0.719c0.759-1.306,1.196-2.819,1.196-4.435"/>
<path fill="none" stroke="#000000" stroke-width="1.5" stroke-miterlimit="10" d="M70.339,13.787c0-0.027,0-0.054,0-0.081"/>
<path fill="none" stroke="#41C363" stroke-width="1.5" stroke-miterlimit="10" d="M70.339,13.787"/>
<path fill="none" stroke="#FFFFFF" stroke-width="1.5" stroke-miterlimit="10" d="M70.339,13.787c0-4.897-3.989-8.867-8.909-8.867
	c-4.919,0-8.908,3.97-8.908,8.867c0,2.153,0.773,4.127,2.055,5.664l6.862,9.854l3.604-5.137"/>
<g id="Livello_110_1_">
	<path fill="none" stroke="#FFFFFF" stroke-width="1.5" stroke-miterlimit="10" d="M65.718,47.787c0,2.447-1.995,4.436-4.454,4.436
		c-2.461,0-4.455-1.986-4.455-4.436c0-2.447,1.995-4.434,4.455-4.434S65.718,45.338,65.718,47.787"/>
</g>
<path fill="none" stroke="#000000" stroke-width="1.5" stroke-miterlimit="10" d="M64.986,58.252l2.965-4.227
	c0.251-0.313,0.479-0.643,0.686-0.984l0.071-0.102l0.437-0.719c0.759-1.307,1.196-2.818,1.196-4.436"/>
<path fill="none" stroke="#000000" stroke-width="1.5" stroke-miterlimit="10" d="M70.339,47.787c0-0.025,0-0.055,0-0.08"/>
<path fill="none" stroke="#41C363" stroke-width="1.5" stroke-miterlimit="10" d="M70.339,47.787"/>
<path fill="none" stroke="#FFFFFF" stroke-width="1.5" stroke-miterlimit="10" d="M70.339,47.787c0-4.896-3.989-8.867-8.909-8.867
	c-4.919,0-8.908,3.973-8.908,8.867c0,2.154,0.773,4.129,2.055,5.664l6.862,9.854l3.604-5.137"/>
<path fill="none" stroke="#FFFFFF" stroke-width="1.5" stroke-miterlimit="10" d="M91.976,28.304l-1.453,0.005
	c-0.458,0-0.829-0.371-0.829-0.828V6.729c0-0.458,0.371-0.829,0.829-0.829l18.026-0.063c0.457,0,0.829,0.371,0.829,0.829v14.341"/>
<rect x="100.586" y="6.259" fill="#FFFFFF" width="1.325" height="22.07"/>
<g>
	<path fill="none" stroke="#FFFFFF" stroke-width="1.5" stroke-miterlimit="10" d="M153.412,27.173c-9.115,0-17.061,0-26.177-0.003
		c-0.038,0-0.138,0.073-0.135-0.056c0.118-0.403,0.24-0.806,0.354-1.21c0.611-2.188,1.221-4.375,1.827-6.564
		c0.031-0.117,0.084-0.165,0.204-0.191c0.954-0.206,1.908-0.42,2.861-0.633c0.048-0.01,0.096-0.017,0.16-0.029
		c0,1.538,0,3.061,0,4.592"/>
	<path fill="none" stroke="#FFFFFF" stroke-width="1.5" stroke-miterlimit="10" d="M153.007,19.709
		c-0.009,1.813-0.015,3.625-0.02,5.437v2.761"/>
	<path fill="none" stroke="#FFFFFF" stroke-width="1.5" stroke-miterlimit="10" d="M144.679,23.076c0-1.522,0-3.046,0-4.583
		c0.058,0.005,0.1,0.004,0.142,0.013c0.982,0.217,1.966,0.435,2.946,0.658c0.065,0.015,0.132,0.067,0.177,0.119
		c0.502,0.59,1.001,1.184,1.5,1.776c0.032,0.038,0.065,0.074,0.131,0.146c0-0.093,0-0.147,0-0.202
		c0.006-2.142,0.01-4.283,0.021-6.424c0.001-0.17-0.045-0.286-0.166-0.407c-0.482-0.48-0.963-0.962-1.443-1.445"/>
	<path fill="none" stroke="#FFFFFF" stroke-width="1.5" stroke-miterlimit="10" d="M132.905,18.398
		c0.263-0.049,1.868-0.376,2.093-0.5c0.224-0.122,0.381-0.358,0.566-0.544c0.193-0.193,0.387-0.386,0.606-0.604
		c0.028,0.042,0.054,0.086,0.085,0.123c0.535,0.582,1.069,1.163,1.606,1.742c0.028,0.03,0.082,0.052,0.124,0.052
		c0.402,0.003,0.805,0.005,1.208-0.001c0.048-0.001,0.107-0.035,0.144-0.072c0.562-0.604,1.117-1.211,1.686-1.826
		c0.036,0.033,0.07,0.061,0.1,0.09c0.326,0.327,0.65,0.656,0.98,0.978c0.058,0.055,0.138,0.098,0.214,0.117
		c0.211,0.055,1.812,0.471,2.025,0.509"/>
	<path fill="none" stroke="#FFFFFF" stroke-width="1.5" stroke-miterlimit="10" d="M145.724,10.016c-4.771,0-9.54,0-14.321,0"/>
	<path fill="none" stroke="#FFFFFF" stroke-width="1.5" stroke-miterlimit="10" d="M132.701,9.709
		c0.067-0.642,0.116-1.287,0.22-1.922c0.18-1.136,0.508-2.226,1.179-3.182c0.734-1.05,1.756-1.66,3.002-1.903
		c0.369-0.072,0.745-0.102,1.119-0.151c0.249,0,0.496,0,0.745,0c0.311,0.038,0.622,0.063,0.929,0.115
		c1.814,0.302,3.063,1.324,3.779,3.007c0.373,0.874,0.569,1.794,0.686,2.733c0.054,0.443,0.089,0.89,0.125,1.334"/>
	<path fill="none" stroke="#FFFFFF" stroke-width="1.5" stroke-miterlimit="10" d="M133.332,10.033c3.519,0,7.025,0,10.545,0
		c-0.122,0.757-0.32,1.482-0.586,2.189c-0.426,1.133-0.986,2.189-1.784,3.107c-0.396,0.453-0.837,0.848-1.365,1.142
		c-1.087,0.604-2.162,0.563-3.219-0.079c-0.816-0.496-1.425-1.2-1.938-1.99c-0.845-1.304-1.372-2.733-1.646-4.259
		C133.335,10.108,133.336,10.075,133.332,10.033z"/>
</g>
<path fill="none" stroke="#41C363" stroke-width="1.5" stroke-miterlimit="10" d="M148.069,12.812
	c-0.512-0.514-1.022-1.029-1.536-1.542c-0.081-0.082-0.088-0.136-0.028-0.236c0.776-1.34,1.551-2.681,2.319-4.024
	c0.059-0.103,0.12-0.137,0.233-0.131c0.178,0.009,0.355,0.002,0.553,0.002c0,1.199,0,2.383,0,3.58c1.179,0,2.338,0,3.509,0
	c0-1.188,0-2.373,0-3.576c0.235,0,0.457-0.006,0.68,0.005c0.04,0.002,0.087,0.071,0.113,0.119c0.771,1.332,1.541,2.664,2.312,3.995
	c0.026,0.046,0.063,0.088,0.092,0.132c0,0.01,0,0.021,0,0.03c-1.069,1.078-2.144,2.155-3.211,3.236
	c-0.045,0.046-0.074,0.129-0.074,0.194c-0.01,1.745-0.018,3.49-0.021,5.235"/>
<g>
	<path fill="none" stroke="#FFFFFF" stroke-width="1.5" stroke-miterlimit="10" d="M153.412,63.174c-9.115,0-17.061,0-26.177-0.004
		c-0.038,0-0.138,0.068-0.135-0.059c0.118-0.4,0.24-0.807,0.354-1.211c0.611-2.188,1.221-4.375,1.827-6.563
		c0.031-0.116,0.084-0.166,0.204-0.19c0.954-0.205,1.908-0.42,2.861-0.633c0.048-0.011,0.096-0.019,0.16-0.029
		c0,1.539,0,3.063,0,4.595"/>
	<path fill="none" stroke="#FFFFFF" stroke-width="1.5" stroke-miterlimit="10" d="M153.007,55.709
		c-0.009,1.813-0.015,3.625-0.02,5.438v2.764"/>
	<path fill="none" stroke="#FFFFFF" stroke-width="1.5" stroke-miterlimit="10" d="M144.679,59.076c0-1.521,0-3.047,0-4.582
		c0.058,0.004,0.1,0.004,0.142,0.012c0.982,0.221,1.966,0.438,2.946,0.658c0.065,0.018,0.132,0.066,0.177,0.119
		c0.502,0.592,1.001,1.184,1.5,1.775c0.032,0.039,0.065,0.072,0.131,0.146c0-0.095,0-0.146,0-0.201
		c0.006-2.144,0.01-4.28,0.021-6.424c0.001-0.172-0.045-0.287-0.166-0.408c-0.482-0.479-0.963-0.961-1.443-1.44"/>
	<path fill="none" stroke="#FFFFFF" stroke-width="1.5" stroke-miterlimit="10" d="M132.905,54.398
		c0.263-0.049,1.868-0.377,2.093-0.5c0.224-0.123,0.381-0.359,0.566-0.545c0.193-0.191,0.387-0.387,0.606-0.604
		c0.028,0.043,0.054,0.086,0.085,0.123c0.535,0.582,1.069,1.157,1.606,1.737c0.028,0.029,0.082,0.056,0.124,0.056
		c0.402,0.004,0.805,0.004,1.208-0.002c0.048,0,0.107-0.035,0.144-0.072c0.562-0.604,1.117-1.211,1.686-1.825
		c0.036,0.032,0.07,0.063,0.1,0.092c0.326,0.326,0.65,0.653,0.98,0.979c0.058,0.058,0.138,0.101,0.214,0.117
		c0.211,0.055,1.812,0.471,2.025,0.508"/>
	<path fill="none" stroke="#FFFFFF" stroke-width="1.5" stroke-miterlimit="10" d="M145.724,46.016c-4.771,0-9.54,0-14.321,0"/>
	<path fill="none" stroke="#FFFFFF" stroke-width="1.5" stroke-miterlimit="10" d="M132.701,45.709
		c0.067-0.643,0.116-1.287,0.22-1.922c0.18-1.137,0.508-2.227,1.179-3.184c0.734-1.049,1.756-1.66,3.002-1.902
		c0.369-0.072,0.745-0.102,1.119-0.15c0.249,0,0.496,0,0.745,0c0.311,0.037,0.622,0.063,0.929,0.115
		c1.814,0.301,3.063,1.322,3.779,3.006c0.373,0.875,0.569,1.795,0.686,2.734c0.054,0.443,0.089,0.889,0.125,1.334"/>
	<path fill="none" stroke="#FFFFFF" stroke-width="1.5" stroke-miterlimit="10" d="M133.332,46.033c3.519,0,7.025,0,10.545,0
		c-0.122,0.758-0.32,1.482-0.586,2.189c-0.426,1.133-0.986,2.188-1.784,3.104c-0.396,0.447-0.837,0.85-1.365,1.145
		c-1.087,0.604-2.162,0.563-3.219-0.08c-0.816-0.496-1.425-1.199-1.938-1.99c-0.845-1.303-1.372-2.732-1.646-4.258
		C133.335,46.109,133.336,46.074,133.332,46.033z"/>
</g>
<path fill="none" stroke="#000000" stroke-width="1.5" stroke-miterlimit="10" d="M148.069,48.813
	c-0.512-0.516-1.022-1.027-1.536-1.543c-0.081-0.082-0.088-0.137-0.028-0.234c0.776-1.342,1.551-2.682,2.319-4.023
	c0.059-0.104,0.12-0.137,0.233-0.131c0.178,0.014,0.355,0.002,0.553,0.002c0,1.199,0,2.389,0,3.58c1.179,0,2.338,0,3.509,0
	c0-1.188,0-2.373,0-3.576c0.235,0,0.457-0.006,0.68,0.01c0.04,0.002,0.087,0.066,0.113,0.115c0.771,1.33,1.541,2.662,2.312,3.994
	c0.026,0.047,0.063,0.088,0.092,0.137c0,0.01,0,0.02,0,0.025c-1.069,1.078-2.144,2.152-3.211,3.234
	c-0.045,0.047-0.074,0.131-0.074,0.193c-0.01,1.746-0.018,3.49-0.021,5.236"/>
<path fill="none" stroke="#41C363" stroke-miterlimit="10" d="M93.21,10.721v1.364c0,0.909,0.737,1.646,1.646,1.646l0,0
	c0.909,0,1.646-0.737,1.646-1.646v-1.364H93.21z"/>
<polyline fill="none" stroke="#41C363" stroke-miterlimit="10" points="96.21,10.721 98.147,10.721 98.147,12.439 "/>
<rect x="92.397" y="20.65" fill="none" stroke="#FFFFFF" stroke-miterlimit="10" width="6.219" height="3.531"/>
<line fill="none" stroke="#FFFFFF" stroke-miterlimit="10" x1="93.632" y1="22.752" x2="97.382" y2="22.752"/>
<path fill="none" stroke="#FFFFFF" stroke-miterlimit="10" d="M106.988,14.158v-2.01c0-0.909-0.737-1.646-1.646-1.646l0,0
	c-0.909,0-1.646,0.737-1.646,1.646v2.01"/>
<line fill="none" stroke="#FFFFFF" stroke-miterlimit="10" x1="103.442" y1="12.815" x2="106.671" y2="12.815"/>
<path fill="none" stroke="#FFFFFF" stroke-miterlimit="10" d="M103.676,20.955v2.01c0,0.909,0.737,1.646,1.646,1.646l0,0
	c0.909,0,1.646-0.737,1.646-1.646v-2.01"/>
<line fill="none" stroke="#FFFFFF" stroke-miterlimit="10" x1="107.223" y1="22.298" x2="103.994" y2="22.298"/>
<line fill="none" stroke="#FFFFFF" stroke-miterlimit="10" x1="103.192" y1="15.534" x2="104.853" y2="15.534"/>
<line fill="none" stroke="#41C363" stroke-miterlimit="10" x1="105.864" y1="15.534" x2="107.525" y2="15.534"/>
<line fill="none" stroke="#FFFFFF" stroke-miterlimit="10" x1="103.192" y1="17.534" x2="104.853" y2="17.534"/>
<line fill="none" stroke="#FFFFFF" stroke-miterlimit="10" x1="105.864" y1="17.534" x2="107.525" y2="17.534"/>
<line fill="none" stroke="#FFFFFF" stroke-miterlimit="10" x1="103.192" y1="19.534" x2="104.853" y2="19.534"/>
<line fill="none" stroke="#41C363" stroke-miterlimit="10" x1="105.864" y1="19.534" x2="107.525" y2="19.534"/>
<path fill="none" stroke="#41C363" stroke-width="1.5" stroke-miterlimit="10" d="M109.378,20.929v5.489l-0.001,1
	c0,0.457-0.372,0.828-0.829,0.828l-16.635,0.063"/>
<path fill="none" stroke="#FFFFFF" stroke-width="1.5" stroke-miterlimit="10" d="M91.976,62.305l-1.453,0.004
	c-0.458,0-0.829-0.371-0.829-0.828V40.729c0-0.457,0.371-0.828,0.829-0.828l18.026-0.063c0.457,0,0.829,0.371,0.829,0.828v14.342"/>
<rect x="100.586" y="40.26" fill="#FFFFFF" width="1.325" height="22.07"/>
<path fill="none" stroke="#000000" stroke-miterlimit="10" d="M93.21,44.721v1.365c0,0.908,0.737,1.645,1.646,1.645l0,0
	c0.909,0,1.646-0.734,1.646-1.645v-1.365H93.21z"/>
<polyline fill="none" stroke="#000000" stroke-miterlimit="10" points="96.21,44.721 98.147,44.721 98.147,46.439 "/>
<rect x="92.397" y="54.65" fill="none" stroke="#FFFFFF" stroke-miterlimit="10" width="6.219" height="3.531"/>
<line fill="none" stroke="#FFFFFF" stroke-miterlimit="10" x1="93.632" y1="56.752" x2="97.382" y2="56.752"/>
<path fill="none" stroke="#FFFFFF" stroke-miterlimit="10" d="M106.988,48.158v-2.01c0-0.91-0.737-1.646-1.646-1.646l0,0
	c-0.909,0-1.646,0.736-1.646,1.646v2.01"/>
<line fill="none" stroke="#FFFFFF" stroke-miterlimit="10" x1="103.442" y1="46.814" x2="106.671" y2="46.814"/>
<path fill="none" stroke="#FFFFFF" stroke-miterlimit="10" d="M103.676,54.955v2.01c0,0.91,0.737,1.646,1.646,1.646l0,0
	c0.909,0,1.646-0.736,1.646-1.646v-2.01"/>
<line fill="none" stroke="#FFFFFF" stroke-miterlimit="10" x1="107.223" y1="56.299" x2="103.994" y2="56.299"/>
<line fill="none" stroke="#FFFFFF" stroke-miterlimit="10" x1="103.192" y1="49.533" x2="104.853" y2="49.533"/>
<line fill="none" stroke="#000000" stroke-miterlimit="10" x1="105.864" y1="49.533" x2="107.525" y2="49.533"/>
<line fill="none" stroke="#FFFFFF" stroke-miterlimit="10" x1="103.192" y1="51.533" x2="104.853" y2="51.533"/>
<line fill="none" stroke="#FFFFFF" stroke-miterlimit="10" x1="105.864" y1="51.533" x2="107.525" y2="51.533"/>
<line fill="none" stroke="#FFFFFF" stroke-miterlimit="10" x1="103.192" y1="53.533" x2="104.853" y2="53.533"/>
<line fill="none" stroke="#000000" stroke-miterlimit="10" x1="105.864" y1="53.533" x2="107.525" y2="53.533"/>
<path fill="none" stroke="#000000" stroke-width="1.5" stroke-miterlimit="10" d="M109.378,54.93v5.488l-0.001,1
	c0,0.457-0.372,0.828-0.829,0.828l-16.635,0.063"/>
<path fill="#FFFFFF" d="M196.729,15.578c-0.146-0.24-0.405-0.385-0.688-0.385c-2.36,0-4.524,1.214-5.758,3.2h-9.49
	c-1.066,0-2.07,0.417-2.828,1.172l-4.73,4.731c-0.313,0.312-0.313,0.82,0,1.132c1.943,1.943,3.98,3.968,4.002,3.988
	c0.313,0.31,0.818,0.31,1.128,0l3.036-3.021h6.703c2.09,0,3.993-1.15,4.961-3c0.021-0.047,2.447-4.672,3.687-7.029
	C196.883,16.117,196.875,15.819,196.729,15.578z M191.647,22.652c-0.692,1.321-2.051,2.143-3.543,2.143h-7.033
	c-0.211,0-0.415,0.084-0.563,0.233l-2.704,2.694c-0.64-0.633-1.734-1.725-2.869-2.858l4.168-4.165
	c0.451-0.454,1.055-0.704,1.694-0.704h8.632l-0.613,1.171c-0.142,0.264-0.408,0.429-0.707,0.429h-5.437
	c-0.44,0-0.801,0.358-0.801,0.8s0.358,0.801,0.801,0.801h5.437c0.896,0,1.708-0.494,2.125-1.286c0-0.002,1.233-2.357,1.233-2.357
	c0.671-1.27,1.813-2.177,3.15-2.558C193.338,19.425,191.668,22.613,191.647,22.652z"/>
<path fill="#41C363" d="M193.065,23.521c0.011-0.021,0.494-1.007,1.137-2.232l-1.29-1.017c-0.705,1.344-1.253,2.299-1.265,2.322
	c-0.692,1.321-1.953,2.179-3.444,2.179l-4.953,0.016v1.609l4.979,0.016C190.319,26.414,192.097,25.372,193.065,23.521z"/>
<g>
	<path fill="none" stroke="#FFFFFF" stroke-width="1.6" stroke-miterlimit="10" d="M179.795,16.792h9.604
		c0.438,0,0.799-0.357,0.799-0.8V6.337c0-0.441-0.357-0.8-0.799-0.8h-2.4v-0.8c0-1.324-1.076-2.401-2.4-2.401
		c-1.32,0-2.396,1.077-2.396,2.401v0.8h-2.398c-0.441,0-0.802,0.358-0.802,0.8v9.655C178.994,16.436,179.351,16.792,179.795,16.792z
		"/>
</g>
<g>
	<path fill="none" stroke="#FFFFFF" stroke-width="1.6" stroke-miterlimit="10" d="M181.869,5.526h6.233"/>
</g>
<g>
	<path fill="none" stroke="#41C363" stroke-width="1.6" stroke-miterlimit="10" d="M179,7.337v8.655
		c-0.006,0.444,0.351,0.8,0.795,0.8h3.604"/>
</g>
<path fill="#FFFFFF" d="M196.729,51.578c-0.146-0.24-0.405-0.385-0.688-0.385c-2.36,0-4.524,1.213-5.758,3.199h-9.49
	c-1.066,0-2.07,0.418-2.828,1.172l-4.73,4.73c-0.313,0.313-0.313,0.813,0,1.131c1.943,1.943,3.98,3.971,4.002,3.988
	c0.313,0.313,0.818,0.313,1.128,0l3.036-3.021h6.703c2.09,0,3.993-1.147,4.961-3c0.021-0.047,2.447-4.672,3.687-7.028
	C196.883,52.117,196.875,51.818,196.729,51.578z M191.647,58.652c-0.692,1.32-2.051,2.143-3.543,2.143h-7.033
	c-0.211,0-0.415,0.084-0.563,0.232l-2.704,2.695c-0.64-0.635-1.734-1.729-2.869-2.859l4.168-4.164
	c0.451-0.453,1.055-0.703,1.694-0.703h8.632l-0.613,1.17c-0.142,0.271-0.408,0.438-0.707,0.438h-5.437
	c-0.44,0-0.801,0.355-0.801,0.799c0,0.445,0.358,0.809,0.801,0.809h5.437c0.896,0,1.708-0.488,2.125-1.279
	c0-0.006,1.233-2.355,1.233-2.355c0.671-1.27,1.813-2.178,3.15-2.559C193.338,55.426,191.668,58.613,191.647,58.652z"/>
<path d="M193.065,59.521c0.011-0.021,0.494-1.008,1.137-2.232l-1.29-1.016c-0.705,1.344-1.253,2.299-1.265,2.318
	c-0.692,1.322-1.953,2.182-3.444,2.182l-4.953,0.016v1.609l4.979,0.016C190.319,62.414,192.097,61.373,193.065,59.521z"/>
<g>
	<path fill="none" stroke="#FFFFFF" stroke-width="1.6" stroke-miterlimit="10" d="M179.795,52.793h9.604
		c0.438,0,0.799-0.354,0.799-0.801v-9.654c0-0.438-0.357-0.801-0.799-0.801h-2.4v-0.801c0-1.322-1.076-2.4-2.4-2.4
		c-1.32,0-2.396,1.078-2.396,2.4v0.801h-2.398c-0.441,0-0.802,0.357-0.802,0.801v9.654
		C178.994,52.436,179.351,52.793,179.795,52.793z"/>
</g>
<g>
	<path fill="none" stroke="#FFFFFF" stroke-width="1.6" stroke-miterlimit="10" d="M181.869,41.525h6.233"/>
</g>
<g>
	<path fill="none" stroke="#000000" stroke-width="1.6" stroke-miterlimit="10" d="M179,43.338v8.645
		c-0.006,0.441,0.351,0.811,0.795,0.811h3.604"/>
</g>
<path fill="none" stroke="#FFFFFF" stroke-width="1.5" stroke-miterlimit="10" d="M229.414,4.569c1.1,0.001,2.198,0,3.299-0.003
	c0.625-0.002,1.143,0.203,1.449,0.759c0.133,0.242,0.235,0.54,0.235,0.812c0.013,6.764,0.009,13.525,0.015,20.289
	c0.002,0.689-0.601,1.523-1.422,1.55c-0.119,0.004-0.236,0.02-0.355,0.02c-5.414,0.001-10.83,0-16.244,0.004
	c-0.656,0.001-1.217-0.182-1.539-0.786c-0.129-0.237-0.225-0.525-0.225-0.789c-0.008-3.45-0.01-6.9-0.01-10.35"/>
<path fill="none" stroke="#FFFFFF" stroke-width="1.5" stroke-miterlimit="10" d="M223.373,12.334
	c-0.849,0.015-1.693,0.007-2.541,0.007c-0.854,0-2.636,0.002-3.49,0"/>
<path fill="none" stroke="#FFFFFF" stroke-width="1.5" stroke-miterlimit="10" d="M228.681,4.909c0,0.492,0,1.668,0,2.14
	c-0.002,0.445-0.189,0.633-0.639,0.634c-2.354,0.001-4.709,0.001-7.066,0c-0.445-0.001-0.631-0.189-0.633-0.635
	c0-0.472,0-1.649,0-2.151"/>
<polyline fill="none" stroke="#FFFFFF" stroke-width="1.5" stroke-miterlimit="10" points="226.134,12.146 227.542,13.641 
	231.235,10.255 "/>
<path fill="none" stroke="#FFFFFF" stroke-width="1.5" stroke-miterlimit="10" d="M223.373,17.963
	c-0.849,0.014-1.693,0.007-2.541,0.007c-0.854,0-2.636,0.001-3.49,0"/>
<polyline fill="none" stroke="#41C363" stroke-width="1.5" stroke-miterlimit="10" points="226.134,17.773 227.542,19.269 
	231.235,15.884 "/>
<path fill="none" stroke="#FFFFFF" stroke-width="1.5" stroke-miterlimit="10" d="M223.373,23.591
	c-0.849,0.014-1.693,0.007-2.541,0.007c-0.854,0-2.636,0.001-3.49,0"/>
<polyline fill="none" stroke="#FFFFFF" stroke-width="1.5" stroke-miterlimit="10" points="226.134,23.403 227.542,24.897 
	231.235,21.512 "/>
<path fill="none" stroke="#41C363" stroke-width="1.5" stroke-miterlimit="10" d="M214.625,16.13
	c-0.015-6.764-0.013-3.231-0.01-9.994c0-0.815,0.604-1.478,1.415-1.557c0.125-0.012,0.255-0.012,0.382-0.012
	c1.94-0.001,3.881-0.001,5.821-0.001c0.084,0,0.17,0,0.242,0c0.123-0.234,0.228-0.466,0.364-0.673
	c0.339-0.502,0.826-0.781,1.418-0.894c0.168,0,0.339,0,0.509,0c0.567,0.111,1.051,0.37,1.383,0.854
	c0.147,0.214,0.261,0.451,0.408,0.713c0.058,0,0.155,0,0.256,0c0.894,0,1.785,0.001,2.681,0.001"/>
<path fill="none" stroke="#FFFFFF" stroke-width="1.5" stroke-miterlimit="10" d="M229.429,40.26
	c1.094,0.002,2.188,0.002,3.283-0.004c0.625-0.003,1.143,0.203,1.449,0.762c0.133,0.24,0.235,0.537,0.235,0.811
	c0.013,6.766,0.009,13.525,0.015,20.291c0.002,0.688-0.601,1.521-1.422,1.549c-0.119,0.006-0.236,0.021-0.355,0.021
	c-5.414,0-10.83-0.002-16.244,0.004c-0.656,0.002-1.217-0.182-1.539-0.785c-0.129-0.236-0.225-0.525-0.225-0.789
	c-0.008-3.467-0.01-6.934-0.01-10.402"/>
<path fill="none" stroke="#FFFFFF" stroke-width="1.5" stroke-miterlimit="10" d="M223.373,48.025
	c-0.849,0.014-1.693,0.008-2.541,0.008c-0.854,0-2.636,0.002-3.49,0"/>
<path fill="none" stroke="#FFFFFF" stroke-width="1.5" stroke-miterlimit="10" d="M228.681,40.6c0,0.492,0,1.668,0,2.143
	c-0.002,0.443-0.189,0.633-0.639,0.635c-2.354,0-4.709,0-7.066,0c-0.445-0.002-0.631-0.189-0.633-0.639c0-0.471,0-1.646,0-2.148"/>
<polyline fill="none" stroke="#FFFFFF" stroke-width="1.5" stroke-miterlimit="10" points="226.134,47.836 227.542,49.332 
	231.235,45.947 "/>
<path fill="none" stroke="#FFFFFF" stroke-width="1.5" stroke-miterlimit="10" d="M223.373,53.654
	c-0.849,0.016-1.693,0.006-2.541,0.006c-0.854,0-2.636,0.002-3.49,0"/>
<polyline fill="none" stroke="#000000" stroke-width="1.5" stroke-miterlimit="10" points="226.134,53.465 227.542,54.961 
	231.235,51.574 "/>
<path fill="none" stroke="#FFFFFF" stroke-width="1.5" stroke-miterlimit="10" d="M223.373,59.283
	c-0.849,0.012-1.693,0.006-2.541,0.006c-0.854,0-2.636,0.002-3.49,0"/>
<polyline fill="none" stroke="#FFFFFF" stroke-width="1.5" stroke-miterlimit="10" points="226.134,59.094 227.542,60.588 
	231.235,57.203 "/>
<path fill="none" stroke="#000000" stroke-width="1.5" stroke-miterlimit="10" d="M214.625,51.822
	c-0.015-6.764-0.013-3.232-0.01-9.996c0-0.814,0.604-1.477,1.415-1.555c0.125-0.016,0.255-0.016,0.382-0.016c1.94,0,3.881,0,5.821,0
	c0.084,0,0.17,0,0.242,0c0.123-0.232,0.228-0.466,0.364-0.674c0.339-0.503,0.826-0.783,1.418-0.896c0.168,0,0.339,0,0.509,0
	c0.567,0.11,1.051,0.371,1.383,0.854c0.147,0.215,0.261,0.448,0.408,0.715c0.058,0,0.155,0,0.256,0c0.894,0,1.785,0.002,2.681,0.002
	"/>
<g>
	
		<line fill="none" stroke="#FFFFFF" stroke-width="1.5" stroke-miterlimit="10" x1="324.345" y1="24.906" x2="324.345" y2="27.279"/>
	
		<line fill="none" stroke="#FFFFFF" stroke-width="1.5" stroke-miterlimit="10" x1="322.283" y1="24.946" x2="329.804" y2="24.946"/>
	<g>
		<path fill="none" stroke="#FFFFFF" stroke-width="1.5" stroke-miterlimit="10" d="M333.275,27.05
			c-0.322,0.166-0.689,0.259-1.074,0.259c-1.303,0-2.355-1.058-2.355-2.358c0-1.3,1.057-2.357,2.355-2.357
			c0.049,0,0.098,0.001,0.145,0.005"/>
	</g>
	
		<line fill="none" stroke="#FFFFFF" stroke-width="1.5" stroke-miterlimit="10" x1="327.095" y1="24.906" x2="327.095" y2="28.626"/>
	<g>
		<path fill="none" stroke="#41C363" stroke-width="1.5" stroke-miterlimit="10" d="M332.201,22.593
			c1.299,0,2.355,1.057,2.355,2.357c0,0.939-0.553,1.753-1.352,2.132"/>
	</g>
</g>
<g>
	<path fill="none" stroke="#FFFFFF" stroke-width="1.5" stroke-miterlimit="10" d="M330.21,19.419
		c-0.881-1.964-2.854-3.331-5.148-3.331"/>
	<path fill="none" stroke="#FFFFFF" stroke-width="1.5" stroke-miterlimit="10" d="M330.707,22.652"/>
	<circle fill="none" stroke="#FFFFFF" stroke-width="1.5" stroke-miterlimit="10" cx="325.064" cy="7.66" r="5.491"/>
	<path fill="none" stroke="#41C363" stroke-width="1.5" stroke-miterlimit="10" d="M325.064,16.089
		c-3.115,0-5.646,2.526-5.646,5.646"/>
	<path fill="none" stroke="#FFFFFF" stroke-width="1.5" stroke-miterlimit="10" d="M319.419,21.736v6.217h1.908"/>
	<path fill="none" stroke="#FFFFFF" stroke-width="1.5" stroke-miterlimit="10" d="M330.707,22.652"/>
</g>
<g>
	
		<line fill="none" stroke="#FFFFFF" stroke-width="1.5" stroke-miterlimit="10" x1="324.345" y1="60.908" x2="324.345" y2="63.279"/>
	
		<line fill="none" stroke="#FFFFFF" stroke-width="1.5" stroke-miterlimit="10" x1="322.283" y1="60.947" x2="329.804" y2="60.947"/>
	<g>
		<path fill="none" stroke="#FFFFFF" stroke-width="1.5" stroke-miterlimit="10" d="M333.285,63.047
			c-0.326,0.168-0.693,0.264-1.084,0.264c-1.303,0-2.355-1.059-2.355-2.355c0-1.305,1.057-2.354,2.355-2.354
			c0.043,0,0.086,0.002,0.129,0.004"/>
	</g>
	
		<line fill="none" stroke="#FFFFFF" stroke-width="1.5" stroke-miterlimit="10" x1="327.095" y1="60.908" x2="327.095" y2="64.627"/>
	<g>
		<path fill="none" stroke="#000000" stroke-width="1.5" stroke-miterlimit="10" d="M332.201,58.596
			c1.299,0,2.355,1.053,2.355,2.355c0,0.936-0.553,1.752-1.352,2.131"/>
	</g>
</g>
<g>
	<path fill="none" stroke="#FFFFFF" stroke-width="1.5" stroke-miterlimit="10" d="M330.21,55.422
		c-0.881-1.965-2.854-3.332-5.148-3.332"/>
	<path fill="none" stroke="#FFFFFF" stroke-width="1.5" stroke-miterlimit="10" d="M330.707,58.654"/>
	<circle fill="none" stroke="#FFFFFF" stroke-width="1.5" stroke-miterlimit="10" cx="325.064" cy="43.661" r="5.493"/>
	<path fill="none" stroke="#000000" stroke-width="1.5" stroke-miterlimit="10" d="M325.064,52.09c-3.115,0-5.646,2.527-5.646,5.646
		"/>
	<path fill="none" stroke="#FFFFFF" stroke-width="1.5" stroke-miterlimit="10" d="M319.419,57.738v6.215h1.908"/>
	<path fill="none" stroke="#FFFFFF" stroke-width="1.5" stroke-miterlimit="10" d="M330.707,58.654"/>
</g>
<g>
	<path fill="none" stroke="#FFFFFF" stroke-width="1.5" stroke-miterlimit="10" d="M265.101,22.08c0-3.12-2.529-5.646-5.645-5.646"
		/>
	<circle fill="none" stroke="#FFFFFF" stroke-width="1.5" stroke-miterlimit="10" cx="259.457" cy="8.004" r="5.644"/>
	<path fill="none" stroke="#41C363" stroke-width="1.5" stroke-miterlimit="10" d="M259.457,16.433
		c-3.115,0-5.646,2.526-5.646,5.646"/>
	<path fill="none" stroke="#FFFFFF" stroke-width="1.5" stroke-miterlimit="10" d="M253.813,22.08v5.894h9.24"/>
	<path fill="none" stroke="#FFFFFF" stroke-width="1.5" stroke-miterlimit="10" d="M255.858,27.971h9.242v-5.893"/>
</g>
<g>
	<path fill="none" stroke="#000000" stroke-width="1.5" stroke-miterlimit="10" d="M265.101,58.076c0-3.121-2.529-5.646-5.645-5.646
		"/>
	<circle fill="none" stroke="#000000" stroke-width="1.5" stroke-miterlimit="10" cx="259.457" cy="44.001" r="5.646"/>
	<path fill="none" stroke="#FFFFFF" stroke-width="1.5" stroke-miterlimit="10" d="M259.457,52.43c-3.115,0-5.646,2.525-5.646,5.646
		"/>
	<path fill="none" stroke="#000000" stroke-width="1.5" stroke-miterlimit="10" d="M253.813,58.076v5.893h9.24"/>
	<path fill="none" stroke="#000000" stroke-width="1.5" stroke-miterlimit="10" d="M255.858,63.969h9.242v-5.893"/>
</g>
<path fill="none" stroke="#41C363" stroke-width="1.5" stroke-miterlimit="10" d="M398.925,22.736v0.854
	c0,1.33-1.078,2.407-2.408,2.407l0,0c-1.33,0-2.406-1.077-2.406-2.407v-0.854"/>
<path fill="none" stroke="#FFFFFF" stroke-width="1.5" stroke-miterlimit="10" d="M388.339,22.684v-7.996
	c0-4.408,3.584-7.994,7.994-7.994c4.408,0,7.994,3.584,7.994,7.994v7.996C402.779,22.684,388.943,22.684,388.339,22.684z
	 M406.667,22.684c-1.551,0-20.064,0-20.668,0 M396.328,4.049V6.75"/>
<path fill="none" stroke="#000000" stroke-width="1.5" stroke-miterlimit="10" d="M398.925,62.736v0.854
	c0,1.33-1.078,2.407-2.408,2.407l0,0c-1.33,0-2.406-1.077-2.406-2.407v-0.854"/>
<path fill="none" stroke="#FFFFFF" stroke-width="1.5" stroke-miterlimit="10" d="M388.339,62.684v-7.996
	c0-4.408,3.584-7.994,7.994-7.994c4.408,0,7.994,3.584,7.994,7.994v7.996C402.779,62.684,388.943,62.684,388.339,62.684z
	 M406.667,62.684c-1.551,0-20.064,0-20.668,0 M396.328,44.049v2.701"/>
<line fill="none" stroke="#FFFFFF" stroke-width="1.5" stroke-linecap="round" stroke-linejoin="round" stroke-miterlimit="10" x1="435.058" y1="13.712" x2="435.058" y2="18.278"/>
<circle fill="#FFFFFF" cx="435.058" cy="22.012" r="1.094"/>
<polyline fill="none" stroke="#FFFFFF" stroke-width="1.5" stroke-linecap="round" stroke-linejoin="round" stroke-miterlimit="10" points="
	434.229,7.137 435.058,5.647 446.364,26 428.968,26 "/>
<polyline fill="none" stroke="#41C363" stroke-width="1.5" stroke-linecap="round" stroke-linejoin="round" stroke-miterlimit="10" points="
	429.144,26 423.75,26 435.058,5.647 "/>
<line fill="none" stroke="#FFFFFF" stroke-width="1.5" stroke-linecap="round" stroke-linejoin="round" stroke-miterlimit="10" x1="435.058" y1="44.712" x2="435.058" y2="49.277"/>
<circle fill="#FFFFFF" cx="435.058" cy="53.012" r="1.094"/>
<polyline fill="none" stroke="#FFFFFF" stroke-width="1.5" stroke-linecap="round" stroke-linejoin="round" stroke-miterlimit="10" points="
	434.229,38.137 435.058,36.646 446.364,57 428.968,57 "/>
<polyline fill="none" stroke="#000000" stroke-width="1.5" stroke-linecap="round" stroke-linejoin="round" stroke-miterlimit="10" points="
	429.144,57 423.75,57 435.058,36.646 "/>
</svg>
